<svg id="印刷データ" xmlns="http://www.w3.org/2000/svg" viewBox="0 0 815.05 302.03"><defs><style>.cls-1,.cls-2{fill:none;stroke:#231815;}.cls-1{stroke-miterlimit:10;}.cls-2{stroke-linecap:round;stroke-linejoin:round;stroke-width:0.99px;}</style></defs><g id="ボトムプレート_LED穴切り抜き"><circle class="cls-1" cx="455.24" cy="201.24" r="2.83"/><circle class="cls-1" cx="359.81" cy="201.24" r="2.83"/><circle class="cls-1" cx="440.36" cy="95.77" r="2.83"/><circle class="cls-1" cx="374.68" cy="95.77" r="2.83"/><circle class="cls-1" cx="680.33" cy="69.1" r="2.83"/><circle class="cls-1" cx="134.76" cy="69.11" r="2.83"/><circle class="cls-1" cx="526.72" cy="202.58" r="2.83"/><circle class="cls-1" cx="503.35" cy="97.13" r="2.83"/><circle class="cls-1" cx="288.34" cy="202.58" r="2.83"/><circle class="cls-1" cx="311.71" cy="97.13" r="2.83"/><circle class="cls-1" cx="753.54" cy="120.97" r="2.83"/><circle class="cls-1" cx="61.52" cy="120.98" r="2.83"/><path id="ボトムプレート外形線" class="cls-1" d="M826.55,213H774.32l-.47-13.62-.3-8.5-5.86-5.47-8.5.29-51,1.79-1.28-13.29-.79-8.19-6-5.11-8.2.51c-77.29,4.82-162.72,23.49-236.94,40.72H395.4c-74.22-17.23-159.65-35.9-236.93-40.72l-8.21-.51-6,5.11-.78,8.19-1.28,13.29-51-1.79-8.5-.29-5.87,5.47-.29,8.5L76.07,213H23.84l-5.67,5.67v125l5.67,5.67H71.32l-.43,11.93-.3,8.5,5.47,5.86,8.5.3,39.36,1.39-1.14,11.88-.84,8.68,5.24,6.2,8.7.62A884.76,884.76,0,0,1,389.74,461l2.45.94h66l2.45-.94a884.76,884.76,0,0,1,253.86-56.28l8.7-.62c2.06-2.43,3.19-3.76,5.24-6.2l-.83-8.68-1.15-11.88,39.36-1.39,8.5-.3,5.47-5.86-.3-8.5-.42-11.93h47.47l5.67-5.67v-125Z" transform="translate(-17.67 -160.36)"/><rect id="リセットスイッチ" class="cls-1" x="396.19" y="208.9" width="22.68" height="11.34"/><path class="cls-2" d="M332.68,425.42l5.56-17.12" transform="translate(-17.67 -160.36)"/><path class="cls-2" d="M338.24,408.3l24,7.79" transform="translate(-17.67 -160.36)"/><path class="cls-2" d="M362.21,416.09l-5.56,17.11" transform="translate(-17.67 -160.36)"/><path class="cls-2" d="M356.65,433.2l-24-7.78" transform="translate(-17.67 -160.36)"/><path class="cls-2" d="M229.91,400.9l3.44-17.66" transform="translate(-17.67 -160.36)"/><path class="cls-2" d="M233.35,383.24l24.73,4.8" transform="translate(-17.67 -160.36)"/><path class="cls-2" d="M258.08,388l-3.43,17.67" transform="translate(-17.67 -160.36)"/><path class="cls-2" d="M254.65,405.71l-24.74-4.81" transform="translate(-17.67 -160.36)"/><path class="cls-2" d="M138.66,345.79l1.57-17.93" transform="translate(-17.67 -160.36)"/><path class="cls-2" d="M140.23,327.86l25.1,2.2" transform="translate(-17.67 -160.36)"/><path class="cls-2" d="M165.33,330.06,163.76,348" transform="translate(-17.67 -160.36)"/><path class="cls-2" d="M163.76,348l-25.1-2.2" transform="translate(-17.67 -160.36)"/><path class="cls-2" d="M46.75,290.34v-18" transform="translate(-17.67 -160.36)"/><path class="cls-2" d="M46.75,272.34H72" transform="translate(-17.67 -160.36)"/><path class="cls-2" d="M72,272.34v18" transform="translate(-17.67 -160.36)"/><path class="cls-2" d="M72,290.34H46.75" transform="translate(-17.67 -160.36)"/><path class="cls-2" d="M200.93,242.67l2.82-17.78" transform="translate(-17.67 -160.36)"/><path class="cls-2" d="M203.75,224.89l24.89,3.94" transform="translate(-17.67 -160.36)"/><path class="cls-2" d="M228.64,228.83l-2.82,17.78" transform="translate(-17.67 -160.36)"/><path class="cls-2" d="M225.82,246.61l-24.89-3.94" transform="translate(-17.67 -160.36)"/><path class="cls-2" d="M624.58,246.61l-2.82-17.78" transform="translate(-17.67 -160.36)"/><path class="cls-2" d="M621.76,228.83l24.89-3.94" transform="translate(-17.67 -160.36)"/><path class="cls-2" d="M646.65,224.89l2.82,17.77" transform="translate(-17.67 -160.36)"/><path class="cls-2" d="M649.47,242.66l-24.89,4" transform="translate(-17.67 -160.36)"/><path class="cls-2" d="M778.44,290.32v-18" transform="translate(-17.67 -160.36)"/><path class="cls-2" d="M778.44,272.32h25.2" transform="translate(-17.67 -160.36)"/><path class="cls-2" d="M803.64,272.32v18" transform="translate(-17.67 -160.36)"/><path class="cls-2" d="M803.64,290.32h-25.2" transform="translate(-17.67 -160.36)"/><path class="cls-2" d="M686.8,348.19l-1.88-17.9" transform="translate(-17.67 -160.36)"/><path class="cls-2" d="M684.92,330.29,710,327.66" transform="translate(-17.67 -160.36)"/><path class="cls-2" d="M710,327.66l1.88,17.9" transform="translate(-17.67 -160.36)"/><path class="cls-2" d="M711.86,345.56l-25.06,2.63" transform="translate(-17.67 -160.36)"/><path class="cls-2" d="M595.74,405.73l-3.44-17.67" transform="translate(-17.67 -160.36)"/><path class="cls-2" d="M592.3,388.06,617,383.25" transform="translate(-17.67 -160.36)"/><path class="cls-2" d="M617,383.25l3.44,17.67" transform="translate(-17.67 -160.36)"/><path class="cls-2" d="M620.48,400.92l-24.74,4.81" transform="translate(-17.67 -160.36)"/><path class="cls-2" d="M493.73,433.2l-5.57-17.11" transform="translate(-17.67 -160.36)"/><path class="cls-2" d="M488.16,416.09l24-7.79" transform="translate(-17.67 -160.36)"/><path class="cls-2" d="M512.13,408.3l5.56,17.12" transform="translate(-17.67 -160.36)"/><path class="cls-2" d="M517.69,425.42l-24,7.78" transform="translate(-17.67 -160.36)"/></g></svg>