<svg xmlns="http://www.w3.org/2000/svg" viewBox="0 0 815.05 302.03"><defs><style>.cls-1,.cls-2{fill:none;stroke:#231815;}.cls-1{stroke-miterlimit:10;}.cls-2{stroke-linecap:round;stroke-linejoin:round;stroke-width:0.99px;}</style></defs><g id="印刷データ"><g id="トッププレート"><circle class="cls-1" cx="455.24" cy="201.24" r="2.83"/><circle class="cls-1" cx="359.81" cy="201.24" r="2.83"/><circle class="cls-1" cx="440.36" cy="95.77" r="2.83"/><circle class="cls-1" cx="374.68" cy="95.77" r="2.83"/><circle class="cls-1" cx="680.33" cy="69.1" r="2.83"/><circle class="cls-1" cx="134.76" cy="69.11" r="2.83"/><circle class="cls-1" cx="526.72" cy="202.58" r="2.83"/><circle class="cls-1" cx="503.35" cy="97.13" r="2.83"/><circle class="cls-1" cx="288.34" cy="202.58" r="2.83"/><circle class="cls-1" cx="311.71" cy="97.13" r="2.83"/><circle class="cls-1" cx="753.54" cy="120.97" r="2.83"/><circle class="cls-1" cx="61.52" cy="120.98" r="2.83"/><path class="cls-2" d="M137.28,208.82l-39.66-1.38" transform="translate(-17.67 -160.36)"/><path class="cls-2" d="M135.9,248.48l1.38-39.66" transform="translate(-17.67 -160.36)"/><path class="cls-2" d="M96.23,247.09l39.67,1.39" transform="translate(-17.67 -160.36)"/><path class="cls-2" d="M97.62,207.44l-1.39,39.65" transform="translate(-17.67 -160.36)"/><path class="cls-2" d="M203.53,187.33l-39.5-3.8" transform="translate(-17.67 -160.36)"/><path class="cls-2" d="M199.73,226.83l3.8-39.5" transform="translate(-17.67 -160.36)"/><path class="cls-2" d="M160.23,223l39.5,3.8" transform="translate(-17.67 -160.36)"/><path class="cls-2" d="M164,183.53l-3.8,39.5" transform="translate(-17.67 -160.36)"/><path class="cls-2" d="M268.38,196.8l-39.2-6.2" transform="translate(-17.67 -160.36)"/><path class="cls-2" d="M262.17,236l6.21-39.2" transform="translate(-17.67 -160.36)"/><path class="cls-2" d="M223,229.79l39.2,6.21" transform="translate(-17.67 -160.36)"/><path class="cls-2" d="M229.18,190.6,223,229.79" transform="translate(-17.67 -160.36)"/><path class="cls-2" d="M332.53,210.22l-38.74-8.59" transform="translate(-17.67 -160.36)"/><path class="cls-2" d="M323.94,249l8.59-38.74" transform="translate(-17.67 -160.36)"/><path class="cls-2" d="M285.2,240.37,323.94,249" transform="translate(-17.67 -160.36)"/><path class="cls-2" d="M293.79,201.63l-8.59,38.74" transform="translate(-17.67 -160.36)"/><path class="cls-2" d="M385.25,221.9l-38.75-8.59" transform="translate(-17.67 -160.36)"/><path class="cls-2" d="M376.66,260.65l8.59-38.75" transform="translate(-17.67 -160.36)"/><path class="cls-2" d="M337.91,252.06l38.75,8.59" transform="translate(-17.67 -160.36)"/><path class="cls-2" d="M346.5,213.31l-8.59,38.75" transform="translate(-17.67 -160.36)"/><path class="cls-2" d="M503.9,213.31l-38.75,8.59" transform="translate(-17.67 -160.36)"/><path class="cls-2" d="M512.49,252.06l-8.59-38.75" transform="translate(-17.67 -160.36)"/><path class="cls-2" d="M473.74,260.65l38.75-8.59" transform="translate(-17.67 -160.36)"/><path class="cls-2" d="M465.15,221.9l8.59,38.75" transform="translate(-17.67 -160.36)"/><path class="cls-2" d="M556.61,201.63l-38.74,8.59" transform="translate(-17.67 -160.36)"/><path class="cls-2" d="M565.2,240.37l-8.59-38.74" transform="translate(-17.67 -160.36)"/><path class="cls-2" d="M526.46,249l38.74-8.59" transform="translate(-17.67 -160.36)"/><path class="cls-2" d="M517.87,210.22,526.46,249" transform="translate(-17.67 -160.36)"/><path class="cls-2" d="M621.22,190.6,582,196.8" transform="translate(-17.67 -160.36)"/><path class="cls-2" d="M627.43,229.79l-6.21-39.19" transform="translate(-17.67 -160.36)"/><path class="cls-2" d="M588.23,236l39.2-6.21" transform="translate(-17.67 -160.36)"/><path class="cls-2" d="M582,196.8l6.21,39.2" transform="translate(-17.67 -160.36)"/><path class="cls-2" d="M686.37,183.53l-39.5,3.8" transform="translate(-17.67 -160.36)"/><path class="cls-2" d="M690.17,223l-3.8-39.5" transform="translate(-17.67 -160.36)"/><path class="cls-2" d="M650.68,226.83l39.49-3.8" transform="translate(-17.67 -160.36)"/><path class="cls-2" d="M646.87,187.33l3.81,39.5" transform="translate(-17.67 -160.36)"/><path class="cls-2" d="M752.78,207.44l-39.66,1.38" transform="translate(-17.67 -160.36)"/><path class="cls-2" d="M754.17,247.09l-1.39-39.65" transform="translate(-17.67 -160.36)"/><path class="cls-2" d="M714.5,248.48l39.67-1.39" transform="translate(-17.67 -160.36)"/><path class="cls-2" d="M713.12,208.82l1.38,39.66" transform="translate(-17.67 -160.36)"/><path class="cls-2" d="M135.39,262.79,95.74,261.4" transform="translate(-17.67 -160.36)"/><path class="cls-2" d="M134,302.45l1.38-39.66" transform="translate(-17.67 -160.36)"/><path class="cls-2" d="M94.35,301.07,134,302.45" transform="translate(-17.67 -160.36)"/><path class="cls-2" d="M95.74,261.4l-1.39,39.67" transform="translate(-17.67 -160.36)"/><path class="cls-2" d="M198.35,241.08l-39.5-3.8" transform="translate(-17.67 -160.36)"/><path class="cls-2" d="M194.55,280.59l3.8-39.51" transform="translate(-17.67 -160.36)"/><path class="cls-2" d="M155.05,276.78l39.5,3.81" transform="translate(-17.67 -160.36)"/><path class="cls-2" d="M158.85,237.28l-3.8,39.5" transform="translate(-17.67 -160.36)"/><path class="cls-2" d="M259.93,250.14l-39.2-6.21" transform="translate(-17.67 -160.36)"/><path class="cls-2" d="M253.73,289.34l6.2-39.2" transform="translate(-17.67 -160.36)"/><path class="cls-2" d="M214.53,283.13l39.2,6.21" transform="translate(-17.67 -160.36)"/><path class="cls-2" d="M220.73,243.93l-6.2,39.2" transform="translate(-17.67 -160.36)"/><path class="cls-2" d="M320.84,262.93l-38.75-8.59" transform="translate(-17.67 -160.36)"/><path class="cls-2" d="M312.25,301.68l8.59-38.75" transform="translate(-17.67 -160.36)"/><path class="cls-2" d="M273.5,293.09l38.75,8.59" transform="translate(-17.67 -160.36)"/><path class="cls-2" d="M282.09,254.34l-8.59,38.75" transform="translate(-17.67 -160.36)"/><path class="cls-2" d="M373.56,274.63,334.82,266" transform="translate(-17.67 -160.36)"/><path class="cls-2" d="M365,313.37l8.59-38.74" transform="translate(-17.67 -160.36)"/><path class="cls-2" d="M326.23,304.78,365,313.37" transform="translate(-17.67 -160.36)"/><path class="cls-2" d="M334.82,266l-8.59,38.74" transform="translate(-17.67 -160.36)"/><path class="cls-2" d="M515.58,266l-38.74,8.59" transform="translate(-17.67 -160.36)"/><path class="cls-2" d="M524.17,304.78,515.58,266" transform="translate(-17.67 -160.36)"/><path class="cls-2" d="M485.43,313.37l38.74-8.59" transform="translate(-17.67 -160.36)"/><path class="cls-2" d="M476.84,274.63l8.59,38.74" transform="translate(-17.67 -160.36)"/><path class="cls-2" d="M568.31,254.34l-38.75,8.59" transform="translate(-17.67 -160.36)"/><path class="cls-2" d="M576.9,293.09l-8.59-38.75" transform="translate(-17.67 -160.36)"/><path class="cls-2" d="M538.15,301.68l38.75-8.59" transform="translate(-17.67 -160.36)"/><path class="cls-2" d="M529.56,262.93l8.59,38.75" transform="translate(-17.67 -160.36)"/><path class="cls-2" d="M629.67,243.93l-39.2,6.21" transform="translate(-17.67 -160.36)"/><path class="cls-2" d="M635.87,283.13l-6.2-39.2" transform="translate(-17.67 -160.36)"/><path class="cls-2" d="M596.68,289.34l39.19-6.21" transform="translate(-17.67 -160.36)"/><path class="cls-2" d="M590.47,250.14l6.21,39.2" transform="translate(-17.67 -160.36)"/><path class="cls-2" d="M691.55,237.28l-39.5,3.8" transform="translate(-17.67 -160.36)"/><path class="cls-2" d="M695.35,276.78l-3.8-39.5" transform="translate(-17.67 -160.36)"/><path class="cls-2" d="M655.85,280.59l39.5-3.81" transform="translate(-17.67 -160.36)"/><path class="cls-2" d="M652.05,241.08l3.8,39.51" transform="translate(-17.67 -160.36)"/><path class="cls-2" d="M754.67,261.4,715,262.79" transform="translate(-17.67 -160.36)"/><path class="cls-2" d="M756.05,301.07l-1.38-39.67" transform="translate(-17.67 -160.36)"/><path class="cls-2" d="M716.39,302.45l39.66-1.38" transform="translate(-17.67 -160.36)"/><path class="cls-2" d="M715,262.79l1.38,39.66" transform="translate(-17.67 -160.36)"/><path class="cls-2" d="M133.51,316.75l-39.66-1.38" transform="translate(-17.67 -160.36)"/><path class="cls-2" d="M132.12,356.42l1.39-39.67" transform="translate(-17.67 -160.36)"/><path class="cls-2" d="M92.47,355l39.65,1.39" transform="translate(-17.67 -160.36)"/><path class="cls-2" d="M93.85,315.37,92.47,355" transform="translate(-17.67 -160.36)"/><path class="cls-2" d="M193.18,294.84,153.67,291" transform="translate(-17.67 -160.36)"/><path class="cls-2" d="M189.37,334.34l3.81-39.5" transform="translate(-17.67 -160.36)"/><path class="cls-2" d="M149.87,330.53l39.5,3.81" transform="translate(-17.67 -160.36)"/><path class="cls-2" d="M153.67,291l-3.8,39.5" transform="translate(-17.67 -160.36)"/><path class="cls-2" d="M251.49,303.48l-39.2-6.22" transform="translate(-17.67 -160.36)"/><path class="cls-2" d="M245.27,342.67l6.22-39.19" transform="translate(-17.67 -160.36)"/><path class="cls-2" d="M206.08,336.46l39.19,6.21" transform="translate(-17.67 -160.36)"/><path class="cls-2" d="M212.29,297.26l-6.21,39.2" transform="translate(-17.67 -160.36)"/><path class="cls-2" d="M309.15,315.66l-38.74-8.59" transform="translate(-17.67 -160.36)"/><path class="cls-2" d="M300.56,354.4l8.59-38.74" transform="translate(-17.67 -160.36)"/><path class="cls-2" d="M261.82,345.81l38.74,8.59" transform="translate(-17.67 -160.36)"/><path class="cls-2" d="M270.41,307.07l-8.59,38.74" transform="translate(-17.67 -160.36)"/><path class="cls-2" d="M361.87,327.35l-38.74-8.59" transform="translate(-17.67 -160.36)"/><path class="cls-2" d="M353.29,366.09l8.58-38.74" transform="translate(-17.67 -160.36)"/><path class="cls-2" d="M314.54,357.5l38.75,8.59" transform="translate(-17.67 -160.36)"/><path class="cls-2" d="M323.13,318.76l-8.59,38.74" transform="translate(-17.67 -160.36)"/><path class="cls-2" d="M527.27,318.76l-38.74,8.59" transform="translate(-17.67 -160.36)"/><path class="cls-2" d="M535.86,357.5l-8.59-38.74" transform="translate(-17.67 -160.36)"/><path class="cls-2" d="M497.11,366.09l38.75-8.59" transform="translate(-17.67 -160.36)"/><path class="cls-2" d="M488.53,327.35l8.58,38.74" transform="translate(-17.67 -160.36)"/><path class="cls-2" d="M580,307.07l-38.74,8.59" transform="translate(-17.67 -160.36)"/><path class="cls-2" d="M588.58,345.81,580,307.07" transform="translate(-17.67 -160.36)"/><path class="cls-2" d="M549.84,354.4l38.74-8.59" transform="translate(-17.67 -160.36)"/><path class="cls-2" d="M541.25,315.66l8.59,38.74" transform="translate(-17.67 -160.36)"/><path class="cls-2" d="M638.11,297.26l-39.2,6.22" transform="translate(-17.67 -160.36)"/><path class="cls-2" d="M644.33,336.46l-6.22-39.2" transform="translate(-17.67 -160.36)"/><path class="cls-2" d="M605.13,342.67l39.2-6.21" transform="translate(-17.67 -160.36)"/><path class="cls-2" d="M598.91,303.48l6.22,39.19" transform="translate(-17.67 -160.36)"/><path class="cls-2" d="M696.73,291l-39.51,3.81" transform="translate(-17.67 -160.36)"/><path class="cls-2" d="M700.53,330.53l-3.8-39.5" transform="translate(-17.67 -160.36)"/><path class="cls-2" d="M661,334.34l39.5-3.81" transform="translate(-17.67 -160.36)"/><path class="cls-2" d="M657.22,294.84l3.81,39.5" transform="translate(-17.67 -160.36)"/><path class="cls-2" d="M756.55,315.37l-39.66,1.38" transform="translate(-17.67 -160.36)"/><path class="cls-2" d="M757.93,355l-1.38-39.66" transform="translate(-17.67 -160.36)"/><path class="cls-2" d="M718.28,356.42,757.93,355" transform="translate(-17.67 -160.36)"/><path class="cls-2" d="M716.89,316.75l1.39,39.67" transform="translate(-17.67 -160.36)"/><path class="cls-2" d="M188,348.59l-39.5-3.81" transform="translate(-17.67 -160.36)"/><path class="cls-2" d="M184.19,388.09l3.81-39.5" transform="translate(-17.67 -160.36)"/><path class="cls-2" d="M144.7,384.28l39.49,3.81" transform="translate(-17.67 -160.36)"/><path class="cls-2" d="M148.5,344.78l-3.8,39.5" transform="translate(-17.67 -160.36)"/><path class="cls-2" d="M243,356.81l-39.19-6.21" transform="translate(-17.67 -160.36)"/><path class="cls-2" d="M236.83,396l6.2-39.19" transform="translate(-17.67 -160.36)"/><path class="cls-2" d="M197.63,389.8l39.2,6.2" transform="translate(-17.67 -160.36)"/><path class="cls-2" d="M203.84,350.6l-6.21,39.2" transform="translate(-17.67 -160.36)"/><path class="cls-2" d="M297.47,368.38l-38.75-8.59" transform="translate(-17.67 -160.36)"/><path class="cls-2" d="M288.88,407.12l8.59-38.74" transform="translate(-17.67 -160.36)"/><path class="cls-2" d="M250.13,398.53l38.75,8.59" transform="translate(-17.67 -160.36)"/><path class="cls-2" d="M258.72,359.79l-8.59,38.74" transform="translate(-17.67 -160.36)"/><path class="cls-2" d="M351.08,383.25l-38.14-10.94" transform="translate(-17.67 -160.36)"/><path class="cls-2" d="M340.15,421.39l10.93-38.14" transform="translate(-17.67 -160.36)"/><path class="cls-2" d="M302,410.45l38.15,10.94" transform="translate(-17.67 -160.36)"/><path class="cls-2" d="M312.94,372.31,302,410.45" transform="translate(-17.67 -160.36)"/><path class="cls-2" d="M403.7,401.36l-37.41-13.25" transform="translate(-17.67 -160.36)"/><path class="cls-2" d="M390.45,438.77l13.25-37.41" transform="translate(-17.67 -160.36)"/><path class="cls-2" d="M353,425.52l37.41,13.25" transform="translate(-17.67 -160.36)"/><path class="cls-2" d="M366.29,388.11,353,425.52" transform="translate(-17.67 -160.36)"/><path class="cls-2" d="M484.11,388.11,446.7,401.36" transform="translate(-17.67 -160.36)"/><path class="cls-2" d="M497.36,425.52l-13.25-37.41" transform="translate(-17.67 -160.36)"/><path class="cls-2" d="M460,438.77l37.41-13.25" transform="translate(-17.67 -160.36)"/><path class="cls-2" d="M446.7,401.36,460,438.77" transform="translate(-17.67 -160.36)"/><path class="cls-2" d="M537.46,372.31l-38.14,10.94" transform="translate(-17.67 -160.36)"/><path class="cls-2" d="M548.4,410.45l-10.94-38.14" transform="translate(-17.67 -160.36)"/><path class="cls-2" d="M510.25,421.39l38.15-10.94" transform="translate(-17.67 -160.36)"/><path class="cls-2" d="M499.32,383.25l10.93,38.14" transform="translate(-17.67 -160.36)"/><path class="cls-2" d="M591.68,359.79l-38.74,8.59" transform="translate(-17.67 -160.36)"/><path class="cls-2" d="M600.27,398.53l-8.59-38.74" transform="translate(-17.67 -160.36)"/><path class="cls-2" d="M561.53,407.12l38.74-8.59" transform="translate(-17.67 -160.36)"/><path class="cls-2" d="M552.94,368.38l8.59,38.74" transform="translate(-17.67 -160.36)"/><path class="cls-2" d="M646.56,350.6l-39.19,6.21" transform="translate(-17.67 -160.36)"/><path class="cls-2" d="M652.77,389.8l-6.21-39.2" transform="translate(-17.67 -160.36)"/><path class="cls-2" d="M613.57,396l39.2-6.2" transform="translate(-17.67 -160.36)"/><path class="cls-2" d="M607.37,356.81l6.2,39.19" transform="translate(-17.67 -160.36)"/><path class="cls-2" d="M701.9,344.78l-39.5,3.81" transform="translate(-17.67 -160.36)"/><path class="cls-2" d="M705.71,384.28l-3.81-39.5" transform="translate(-17.67 -160.36)"/><path class="cls-2" d="M666.21,388.09l39.5-3.81" transform="translate(-17.67 -160.36)"/><path class="cls-2" d="M662.4,348.59l3.81,39.5" transform="translate(-17.67 -160.36)"/><path class="cls-2" d="M79.19,234.49H39.51" transform="translate(-17.67 -160.36)"/><path class="cls-2" d="M79.19,274.17V234.49" transform="translate(-17.67 -160.36)"/><path class="cls-2" d="M39.51,274.17H79.19" transform="translate(-17.67 -160.36)"/><path class="cls-2" d="M39.51,234.49v39.68" transform="translate(-17.67 -160.36)"/><path class="cls-2" d="M79.19,288.49H39.51" transform="translate(-17.67 -160.36)"/><path class="cls-2" d="M79.19,328.17V288.49" transform="translate(-17.67 -160.36)"/><path class="cls-2" d="M39.51,328.17H79.19" transform="translate(-17.67 -160.36)"/><path class="cls-2" d="M39.51,288.49v39.68" transform="translate(-17.67 -160.36)"/><path class="cls-2" d="M810.89,234.49H771.21" transform="translate(-17.67 -160.36)"/><path class="cls-2" d="M810.89,274.17V234.49" transform="translate(-17.67 -160.36)"/><path class="cls-2" d="M771.21,274.17h39.68" transform="translate(-17.67 -160.36)"/><path class="cls-2" d="M771.21,234.49v39.68" transform="translate(-17.67 -160.36)"/><path class="cls-2" d="M810.89,288.49H771.21" transform="translate(-17.67 -160.36)"/><path class="cls-2" d="M810.89,328.17V288.49" transform="translate(-17.67 -160.36)"/><path class="cls-2" d="M771.21,328.17h39.68" transform="translate(-17.67 -160.36)"/><path class="cls-2" d="M771.21,288.49v39.68" transform="translate(-17.67 -160.36)"/><rect class="cls-2" x="387.68" y="144.33" width="39.69" height="39.69"/><g id="バックライト穴"><circle class="cls-1" cx="407.52" cy="259.3" r="2.83"/><circle class="cls-1" cx="407.52" cy="270.64" r="2.83"/><circle class="cls-1" cx="413.19" cy="264.97" r="2.83"/><circle class="cls-1" cx="401.85" cy="264.97" r="2.83"/></g><path id="トッププレート外形線" class="cls-1" d="M826.55,213H774.32l-.47-13.62-.3-8.5-5.86-5.47-8.5.29-51,1.79-1.28-13.29-.79-8.19-6-5.11-8.2.51c-77.29,4.82-162.72,23.49-236.94,40.72h-3.15v96.17H398.55V202.11H395.4c-74.22-17.23-159.65-35.9-236.93-40.72l-8.21-.51-6,5.11-.78,8.19-1.28,13.29-51-1.79-8.5-.29-5.87,5.47-.29,8.5L76.07,213H23.84l-5.67,5.67v125l5.67,5.67H71.32l-.43,11.93-.3,8.5,5.47,5.86,8.5.3,39.36,1.39-1.14,11.88-.84,8.68,5.24,6.2,8.7.62A884.76,884.76,0,0,1,389.74,461l2.45.94h66l2.45-.94a884.76,884.76,0,0,1,253.86-56.28l8.7-.62c2.06-2.43,3.19-3.76,5.24-6.2l-.83-8.68-1.15-11.88,39.36-1.39,8.5-.3,5.47-5.86-.3-8.5-.42-11.93h47.47l5.67-5.67v-125Z" transform="translate(-17.67 -160.36)"/><rect id="リセットスイッチ" class="cls-1" x="393.35" y="208.9" width="28.35" height="11.34"/></g></g></svg>